<svg width="40" height="40" viewBox="0 0 40 40" fill="none" xmlns="http://www.w3.org/2000/svg">
<g clip-path="url(#clip0_15_53)">
<path fill-rule="evenodd" clip-rule="evenodd" d="M4 0H36C38.2093 0 40 1.79072 40 4V36C40 38.2093 38.2093 40 36 40H4C1.79072 40 0 38.2093 0 36V4C0 1.79072 1.79072 0 4 0Z" fill="#010101"/>
<path fill-rule="evenodd" clip-rule="evenodd" d="M25.1168 36.8C26.3339 36.8 27.3206 35.8213 27.3206 34.6141C27.3206 33.4069 26.3339 32.428 25.1168 32.428H24.7848C26.0019 32.428 26.9886 33.4069 26.9886 34.6141C26.9886 35.8213 26.0019 36.8 24.7848 36.8H25.1168Z" fill="#EE1D51"/>
<path fill-rule="evenodd" clip-rule="evenodd" d="M24.7547 32.428H24.4227C23.2056 32.428 22.2188 33.4069 22.2188 34.6141C22.2188 35.8213 23.2056 36.8 24.4227 36.8H24.7547C23.5375 36.8 22.5507 35.8213 22.5507 34.6141C22.5507 33.4069 23.5375 32.428 24.7547 32.428Z" fill="#66C8CF"/>
<path d="M24.7698 35.677C25.3617 35.677 25.8416 35.2012 25.8416 34.6141C25.8416 34.0271 25.3617 33.5513 24.7698 33.5513C24.1778 33.5513 23.6979 34.0271 23.6979 34.6141C23.6979 35.2012 24.1778 35.677 24.7698 35.677Z" fill="#010101"/>
<path fill-rule="evenodd" clip-rule="evenodd" d="M8 31.4399V32.5479H9.29792V36.77H10.5963V32.5779H11.6528L12.015 31.4399H8ZM18.6264 31.4399V32.5479H19.9243V36.77H21.2227V32.5779H22.2792L22.6414 31.4399H18.6264ZM12.2568 32.0687C12.2568 31.7215 12.5402 31.4399 12.8902 31.4399C13.2406 31.4399 13.5243 31.7215 13.5243 32.0687C13.5243 32.4159 13.2408 32.6975 12.8902 32.6975C12.5402 32.6974 12.2568 32.4159 12.2568 32.0687ZM12.2568 33.1468H13.5243V36.77H12.2568V33.1468ZM14.0678 31.4399V36.77H15.3358V35.3927L15.7283 35.0331L16.9659 36.7999H18.3243L16.543 34.2247L18.143 32.6675H16.6035L15.3358 33.9251V31.4399H14.0678ZM27.743 31.4399V36.77H29.0112V35.3927L29.4035 35.0331L30.6414 36.7999H32L30.2187 34.2247L31.8187 32.6675H30.2792L29.0112 33.9251V31.4399H27.743Z" fill="white"/>
<path fill-rule="evenodd" clip-rule="evenodd" d="M25.7867 12.9899C27.5378 14.2409 29.683 14.9771 31.9998 14.9771V10.5209C31.5613 10.5211 31.124 10.4753 30.695 10.3844V13.8921C28.3784 13.8921 26.2334 13.156 24.4819 11.9049V20.9985C24.4819 25.5476 20.7923 29.2352 16.2411 29.2352C14.543 29.2352 12.9646 28.722 11.6534 27.842C13.1499 29.3713 15.2368 30.3201 17.5456 30.3201C22.0971 30.3201 25.7869 26.6326 25.7869 22.0833L25.7867 12.9899ZM27.3963 8.49419C26.5014 7.51707 25.9139 6.25419 25.7867 4.85803V4.28491H24.5502C24.8614 6.05931 25.923 7.57531 27.3963 8.49419ZM14.532 24.3513C14.0321 23.6961 13.7618 22.8945 13.763 22.0704C13.763 19.9897 15.4507 18.3028 17.5328 18.3028C17.9208 18.3026 18.3065 18.3621 18.6763 18.4793V13.9236C18.2442 13.8644 17.8081 13.8394 17.372 13.8486V17.3945C17.002 17.2773 16.6161 17.2178 16.228 17.218C14.1459 17.218 12.4584 18.9049 12.4584 20.9857C12.4584 22.4569 13.3019 23.7308 14.532 24.3513Z" fill="#EE1D52"/>
<path fill-rule="evenodd" clip-rule="evenodd" d="M24.4819 11.9049C26.2334 13.156 28.3784 13.8921 30.695 13.8921V10.3844C29.4019 10.1092 28.2571 9.43371 27.3963 8.49419C25.923 7.57531 24.8614 6.05931 24.5502 4.28491H21.3024V22.0832C21.295 24.158 19.6102 25.838 17.5326 25.838C16.3083 25.838 15.2206 25.2548 14.5318 24.3513C13.3017 23.7308 12.4582 22.4569 12.4582 20.9857C12.4582 18.9049 14.1457 17.218 16.2278 17.218C16.6267 17.218 17.0112 17.2801 17.3718 17.3945V13.8486C12.9006 13.9409 9.30463 17.5924 9.30463 22.0833C9.30463 24.3251 10.2001 26.3574 11.6534 27.8422C12.9646 28.7222 14.543 29.2353 16.2411 29.2353C20.7923 29.2353 24.4819 25.5476 24.4819 20.9987V11.9049Z" fill="white"/>
<path fill-rule="evenodd" clip-rule="evenodd" d="M30.695 10.3843V9.43579C29.5289 9.43755 28.3857 9.11114 27.3963 8.49387C28.2721 9.45224 29.4254 10.1131 30.695 10.3843ZM24.5502 4.28475C24.5205 4.11519 24.4977 3.94449 24.4819 3.77307V3.19995H19.9974V20.9984C19.9902 23.0731 18.3056 24.7531 16.2278 24.7531C15.6178 24.7531 15.0419 24.6084 14.5318 24.3512C15.2206 25.2547 16.3083 25.8379 17.5326 25.8379C19.6101 25.8379 21.295 24.1579 21.3024 22.083V4.28475H24.5502ZM17.372 13.8484V12.8387C16.9973 12.7874 16.6195 12.7618 16.2413 12.762C11.6896 12.762 8 16.4497 8 20.9984C8 23.8502 9.45008 26.3635 11.6536 27.8419C10.2003 26.3571 9.3048 24.3248 9.3048 22.083C9.3048 17.5923 12.9006 13.9408 17.372 13.8484Z" fill="#69C9D0"/>
<path fill-rule="evenodd" clip-rule="evenodd" d="M24.7846 36.8C26.0018 36.8 26.9886 35.8213 26.9886 34.6141C26.9886 33.4069 26.0018 32.428 24.7846 32.428H24.7546C23.5374 32.428 22.5507 33.4069 22.5507 34.6141C22.5507 35.8213 23.5374 36.8 24.7546 36.8H24.7846ZM23.6979 34.6141C23.6979 34.0269 24.1779 33.5512 24.7699 33.5512C25.3614 33.5512 25.8414 34.0269 25.8414 34.6141C25.8414 35.2013 25.3614 35.6773 24.7699 35.6773C24.1779 35.6771 23.6979 35.2013 23.6979 34.6141Z" fill="white"/>
</g>
<defs>
<clipPath id="clip0_15_53">
<rect width="40" height="40" fill="white"/>
</clipPath>
</defs>
</svg>
