<svg width="40" height="40" viewBox="0 0 40 40" fill="none" xmlns="http://www.w3.org/2000/svg">
<path d="M20.0001 3.75C17.1776 3.75076 14.404 4.48646 11.9522 5.88467C9.50042 7.28288 7.45497 9.29543 6.01717 11.7242C4.57938 14.153 3.7988 16.9143 3.75227 19.7364C3.70574 22.5585 4.39485 25.344 5.75178 27.8189L4.41634 32.4931C4.29382 32.9218 4.28817 33.3755 4.39999 33.8071C4.5118 34.2387 4.737 34.6325 5.05226 34.9478C5.36751 35.263 5.76134 35.4883 6.19293 35.6001C6.62453 35.7119 7.07818 35.7063 7.50686 35.5838L12.1812 34.2484C14.3535 35.4403 16.7695 36.1197 19.2446 36.2348C21.7197 36.3498 24.1883 35.8973 26.4617 34.9119C28.7351 33.9266 30.7531 32.4344 32.3614 30.5496C33.9697 28.6647 35.1257 26.437 35.741 24.0369C36.3563 21.6368 36.4146 19.1277 35.9116 16.7016C35.4085 14.2754 34.3573 11.9964 32.8384 10.0388C31.3195 8.08122 29.373 6.49687 27.1479 5.40689C24.9227 4.31691 22.4778 3.75017 20.0001 3.75ZM23.7695 30C23.7649 30.0037 23.7564 30 23.7498 30C21.9425 30 20.153 29.6437 18.4835 28.9515C16.814 28.2592 15.2974 27.2447 14.0203 25.9658C12.7433 24.687 11.7309 23.1689 11.041 21.4984C10.3512 19.828 9.99743 18.0379 9.99999 16.2306C10.0057 14.7423 10.6008 13.3169 11.655 12.2663C12.7092 11.2157 14.1367 10.6256 15.625 10.625C16.0351 10.6255 16.4378 10.7342 16.7925 10.94C17.1473 11.1458 17.4414 11.4415 17.6454 11.7973L19.4721 14.9944C19.6922 15.38 19.8057 15.8173 19.8009 16.2613C19.7962 16.7053 19.6735 17.14 19.4453 17.5209L18.3342 19.3727C18.8837 20.3254 19.6747 21.1164 20.6274 21.666L22.4791 20.5548C22.86 20.3266 23.2947 20.2038 23.7387 20.1991C24.1827 20.1943 24.62 20.3078 25.0057 20.5278L28.2025 22.3546C28.5584 22.5585 28.8541 22.8527 29.06 23.2074C29.2658 23.5621 29.3745 23.9649 29.375 24.375C29.3744 25.8633 28.7843 27.2907 27.7337 28.3449C26.6832 29.3991 25.2578 29.9942 23.7695 30Z" fill="black"/>
<path d="M21.3204 24.1654C21.1475 24.2692 20.9521 24.3296 20.7508 24.3415C20.5496 24.3534 20.3484 24.3164 20.1646 24.2336C18.2096 23.3554 16.6446 21.7904 15.7663 19.8354C15.6836 19.6516 15.6466 19.4504 15.6585 19.2491C15.6704 19.0479 15.7308 18.8525 15.8345 18.6796L17.3015 16.2345L15.5255 13.1265C14.717 13.1518 13.9498 13.4899 13.3855 14.0695C12.8212 14.6491 12.5038 15.425 12.5 16.2339C12.4979 17.7126 12.7874 19.1773 13.3518 20.544C13.9162 21.9108 14.7445 23.1529 15.7894 24.1992C16.8343 25.2456 18.0752 26.0757 19.4411 26.642C20.8071 27.2084 22.2713 27.4999 23.75 27.4999H23.766C24.575 27.4962 25.3509 27.1787 25.9305 26.6144C26.5101 26.0501 26.8481 25.283 26.8735 24.4744L23.7654 22.6985L21.3204 24.1654Z" fill="black"/>
</svg>
